<svg version="1.1" xmlns="http://www.w3.org/2000/svg" xmlns:xlink="http://www.w3.org/1999/xlink" width="288.05915" height="220.06166" viewBox="0,0,288.05915,220.06166"><g transform="translate(-100.44691,-49.46706)"><g data-paper-data="{&quot;isPaintingLayer&quot;:true}" fill="#000000" fill-rule="nonzero" stroke="none" stroke-width="0.5" stroke-linecap="butt" stroke-linejoin="miter" stroke-miterlimit="10" stroke-dasharray="" stroke-dashoffset="0" style="mix-blend-mode: normal"><path d="M388.48488,264.72545c0.27455,2.48488 -2.21033,2.75943 -2.21033,2.75943l-4.07987,0.45077c-15.30931,1.68004 -30.94088,0.84969 -45.22011,-5.20492c-5.3787,-1.56195 -10.45871,-1.23847 -16.0218,-1.22131c-6.48824,0.02001 -13.06214,-0.24338 -19.47218,0.94396c-11.42288,2.11588 -22.7216,6.64242 -34.43682,7.04624c-7.30084,0.25166 -15.0855,-0.99784 -17.48185,-8.94668c-0.35286,-1.17047 -0.00497,-2.445 -0.00746,-3.6675c0.17546,-9.87391 0.2501,-20.59698 1.98626,-30.33478c1.60332,-8.99275 5.05236,-18.07928 7.36278,-26.94387c2.00171,-7.68015 5.26271,-14.82616 7.70956,-22.35006c0.19502,-0.59967 0.31247,-1.19445 0.43439,-1.7685c-7.54672,7.54859 -15.27684,15.26858 -24.03684,21.41348c-5.47037,3.83731 -11.63966,6.76166 -17.31328,10.28592c-4.30336,2.6731 -8.39676,5.50753 -12.82559,7.98318c-3.08148,1.7225 -5.78936,4.34405 -9.2044,5.23848c-1.9652,0.5147 -4.09972,0.43986 -6.09422,0.054c-1.67071,-0.32322 -3.81229,-0.6433 -4.63923,-2.13054c-2.18542,-3.93043 0.49644,-11.61516 2.04784,-15.40304c2.55137,-6.15131 4.48389,-12.64875 7.15138,-18.72406c4.01322,-9.14024 9.5647,-17.98165 14.73083,-26.50457c3.04148,-5.01774 5.86946,-11.35699 9.74326,-15.73832c0.08927,-0.10097 0.18173,-0.19852 0.27692,-0.29316c-0.26359,0.15533 -0.52505,0.31126 -0.78398,0.46802c-4.65359,2.08621 -8.65931,4.87816 -13.17776,7.181c-8.46434,4.31388 -17.56839,6.96013 -26.45351,10.18133c-4.71268,1.70853 -9.28718,3.94677 -14.05749,5.48489c-8.29308,2.67399 -16.74173,3.51296 -25.41137,3.51516c-0.7658,0.00019 -10.04741,0.01659 -10.52482,-0.05571c-2.85144,-0.43181 -5.26876,-2.34771 -7.88357,-3.56425c-1.2773,-1.59016 -2.82136,-2.99879 -3.8319,-4.77049c-2.23642,-3.92095 -2.25104,-9.80185 -2.25971,-14.10956c-0.00116,-0.57482 -0.00212,-3.65249 0.00294,-6.12235c-5.84021,-0.74549 -12.24819,-2.25297 -16.35695,-6.20056c-0.90142,-0.86606 -1.14948,-2.22048 -1.69539,-3.34503c-1.55587,-3.20499 -2.81167,-6.55732 -3.92017,-9.94317c0.01823,-8.28506 -0.6412,-17.20474 1.4708,-25.28194c1.72292,-6.58916 4.44569,-12.55895 7.83649,-18.36177c1.46395,-2.50531 2.2486,-5.33046 4.34614,-7.46322c2.11387,-2.14936 4.95962,-3.54538 6.88278,-5.86693c4.05656,-4.8969 9.16624,-9.88364 14.5466,-13.49515c0,0 2.08013,-1.38675 3.46688,0.69338c1.38675,2.08013 -0.69338,3.46688 -0.69338,3.46688c-5.00435,3.31012 -9.6928,8.01768 -13.4534,12.50485c-2.01159,2.40025 -4.8805,3.94109 -7.11722,6.13307c-1.25643,1.2313 -2.99165,5.406 -3.65386,6.53678c-3.17751,5.42586 -5.69042,10.95984 -7.32579,17.12507c-1.96398,7.4041 -1.22985,15.63132 -1.36692,23.23122c0.99756,2.92707 2.22687,5.77365 3.50416,8.58993c0.31628,0.69737 0.32169,1.5981 0.88028,2.12187c3.19204,2.99308 8.41452,3.6225 12.46243,4.25501c0.18742,0.02929 0.37577,0.05873 0.56496,0.08822c0.5034,-2.07471 1.34375,-4.08429 1.92919,-6.1424c5.51757,-19.39687 15.55504,-39.3896 29.88609,-53.75598c4.28258,-4.26235 10.10093,-9.19911 15.70898,-11.62648c1.66454,-0.72047 3.52356,-0.86238 5.28755,-1.28444c4.86113,-1.16309 9.3338,-2.49688 14.36661,-2.35613c6.10079,0.17061 11.61742,1.37063 14.41165,7.62784c1.32119,2.95859 1.0185,8.04379 0.72432,11.15917c-0.63708,6.74661 -2.60825,14.20309 -6.08644,20.05414c-3.00129,5.0488 -7.64613,9.76291 -11.5763,14.09141c-4.58959,5.01608 -10.11648,8.21213 -15.64041,12.11937c-0.30327,0.21451 -8.24374,5.83737 -8.41359,5.92973c-0.38865,0.21134 -8.84996,3.5302 -9.45492,3.79822c-1.58513,0.70228 -7.02579,3.64997 -8.18769,4.07532c-5.77258,2.11322 -12.28991,2.48334 -18.39242,2.02191c-0.87711,7.32574 -0.23452,14.95784 4.21131,20.55081c1.96823,0.84899 3.74406,2.34908 5.86948,2.62707c6.07638,0.79475 13.14767,0.05117 19.22831,-0.49812c10.03708,-0.9067 18.64823,-4.8637 28.01159,-8.25827c8.69014,-3.15051 17.60854,-5.71623 25.88726,-9.93551c4.49184,-2.28928 8.49504,-5.07932 13.12458,-7.15349c4.02443,-2.44691 8.74245,-4.64594 12.45187,-7.54015c1.3245,-1.03342 2.5848,-2.15505 3.87079,-3.24044c1.049,-1.12645 2.17665,-2.1467 3.43327,-2.98704l3.54107,-3.52957c0.00007,-0.00007 0.00014,-0.00014 0.00021,-0.00021c0.45218,-0.45072 1.076,-0.72936 1.76489,-0.72936c1.38071,0 2.5,1.11929 2.5,2.5c0,0.63676 -0.23806,1.21793 -0.63004,1.65934l-3.29337,3.74658l-0.09786,-0.08602l-0.14983,0.33103c-0.20268,0.13075 -0.40317,0.26453 -0.60172,0.40099c-0.76613,0.91509 -1.90669,1.55846 -2.72115,2.45188c-3.37031,3.69709 -6.1233,8.13306 -9.70257,11.62633c-1.15071,1.12306 -2.72634,1.77466 -3.79917,2.97234c-3.01212,3.36266 -5.23669,8.57044 -7.60893,12.41993c-5.64115,9.15403 -11.6923,18.647 -16.02278,28.50983c-2.65318,6.04271 -4.57285,12.51003 -7.11103,18.62953c-0.98124,2.33102 -1.51087,4.84321 -1.93473,7.33657c-0.18969,1.11585 -0.84488,2.23937 -0.59436,3.34316c0.10003,0.44073 0.90387,0.00604 1.35577,0.01168c1.30195,0.01625 2.6582,0.42667 3.90578,0.054c1.39641,-0.41713 2.44695,-1.58528 3.70176,-2.3265c2.85561,-1.6868 5.85031,-3.13288 8.68624,-4.85255c8.38957,-5.0873 17.39432,-9.97449 25.41858,-15.60329c8.80044,-6.17327 16.52251,-14.00568 24.09298,-21.57615c1.4679,-1.41131 5.66789,-6.40007 8.46639,-3.06654c1.56617,1.8656 -0.18619,4.87403 -0.48595,7.29136c-0.66837,5.38989 -3.72155,11.01216 -5.57191,16.09627c-2.62678,7.21742 -4.18901,14.7077 -6.22902,22.10505c-1.24668,4.52065 -3.13163,9.17468 -3.95246,13.79097c-1.6841,9.47115 -1.73806,19.92006 -1.9056,29.52412c-0.46228,9.89192 13.47479,7.77579 20.01964,6.56321c8.72014,-1.61561 17.23859,-4.389 25.9461,-5.99005c6.73705,-1.23875 13.59941,-1.01612 20.41792,-1.03719c6.19872,-0.01915 11.68139,-0.1905 17.70334,1.50704c13.59204,5.76644 28.42319,6.572 43.00491,4.94941l4.07987,-0.45077c0,0 2.48488,-0.27455 2.75943,2.21033zM128.26136,135.40637c2.52108,0.26699 5.06867,0.37779 7.49,0.10603c6.12191,-0.68709 10.74063,-3.36193 16.22449,-5.79299c2.98964,-1.32534 6.24167,-2.06734 9.11461,-3.62959c4.02961,-2.19122 7.7043,-5.55306 11.4942,-8.1506c4.21817,-2.89107 7.80945,-5.0531 11.24758,-8.86809c3.74692,-4.12188 8.18628,-8.61613 11.05838,-13.41299c3.08478,-5.15207 4.75458,-11.9091 5.32777,-17.84536c0.20527,-2.12584 0.53637,-6.54495 -0.34007,-8.7086c-2.0637,-5.09459 -9.03315,-5.21821 -13.59012,-4.62085c-4.06255,0.53255 -10.14072,1.62096 -13.89642,3.24656c-5.03247,2.17824 -10.32833,6.72207 -14.15957,10.57341c-13.74729,13.71099 -23.34272,33.04028 -28.61219,51.58769c-0.49576,1.74496 -0.96386,3.59904 -1.35868,5.51538z"/></g></g></svg>