<svg version="1.1" xmlns="http://www.w3.org/2000/svg" xmlns:xlink="http://www.w3.org/1999/xlink" width="77.87194" height="63.36512" viewBox="0,0,77.87194,63.36512"><g transform="translate(-273.39441,-123.57487)"><g data-paper-data="{&quot;isPaintingLayer&quot;:true}" fill="#0dff87" fill-rule="nonzero" stroke="none" stroke-width="0.5" stroke-linecap="butt" stroke-linejoin="miter" stroke-miterlimit="10" stroke-dasharray="" stroke-dashoffset="0" style="mix-blend-mode: normal"><path d="M273.95226,172.16457c-1.5,-2 0.5,-3.5 0.5,-3.5l1.16853,-0.87158c2.325,-1.54798 4.43624,-3.18323 6.53809,-5.02187c4.33465,-4.3114 6.62075,-11.19043 3.44345,-17.07851c-0.90973,-1.68588 -2.24828,-3.1036 -3.43326,-4.6088c-2.02842,-2.57655 -5.70651,-4.64932 -6.04515,-8.26537c-0.85925,-9.17512 10.83897,-7.5139 16.44807,-5.68135c0,0 2.37171,0.79057 1.58114,3.16228c-0.79057,2.37171 -3.16228,1.58114 -3.16228,1.58114c-2.47526,-0.84584 -4.51988,-0.89789 -7.124,-0.92698c-0.99335,-0.0111 -2.45341,-0.83107 -2.98022,0.01115c-0.84441,1.34998 2.68542,4.1989 2.95241,4.4798c2.10452,2.21414 4.79907,5.23318 6.20689,7.95589c4.12428,7.97628 1.46203,17.06302 -4.47113,23.02199c-2.30825,2.02019 -4.6289,3.82773 -7.18051,5.53089l-0.94203,0.71133c0,0 -2,1.5 -3.5,-0.5z"/><path d="M320.23639,123.58941c2.48973,0.22634 2.26339,2.71607 2.26339,2.71607l-0.28498,3.07083c-1.48485,6.48069 -2.98475,12.89995 -4.81204,19.28145c-0.81777,2.85593 -1.89469,8.28809 -3.87394,10.74758c-0.04897,0.06085 -0.09856,0.12113 -0.14874,0.18086l0.03308,0.02105l-1.82414,2.86651c-0.43975,0.71588 -1.22999,1.19332 -2.13175,1.19332c-1.22888,0 -2.25067,-0.88665 -2.46053,-2.05512l-0.51856,-2.59278c-1.09827,-5.52714 -3.08481,-10.95256 -3.7281,-16.5837c-0.32782,-2.86962 -0.01391,-6.0741 -0.01391,-8.96941c0,0 0,-2.5 2.5,-2.5c2.5,0 2.5,2.5 2.5,2.5c0,2.71487 -0.32824,5.74934 -0.01391,8.44265c0.46875,4.01655 1.63822,7.93192 2.6547,11.85577c0.32526,-0.65539 0.67345,-1.35101 0.94488,-2.13816c2.58237,-7.48874 4.16487,-15.34001 5.9558,-23.04035l0.24266,-2.73319c0,0 0.22634,-2.48973 2.71607,-2.26339z"/><path d="M335.77154,186.46329c-2.08013,-1.38675 -0.69338,-3.46688 -0.69338,-3.46688l0.60776,-0.90471c6.16987,-8.20386 10.58368,-19.90644 10.5804,-30.15829c-0.00074,-2.29954 0.21166,-4.60792 0.0101,-6.8986c-0.01307,-0.14857 -0.22794,-1.17388 -0.42541,-2.27461c-4.16981,4.04664 -9.51982,8.32101 -15.32895,7.97941c-1.66963,-0.09818 -3.61011,-0.12458 -4.86412,-1.23127c-1.28353,-1.13274 -1.50016,-5.69571 -1.26987,-7.37788c0.84061,-6.14034 5.58007,-11.51991 11.87954,-12.45699c2.84026,-0.4225 6.20512,-0.03194 9.054,0.24973c0,0 2.48759,0.24876 2.23883,2.73635c-0.24876,2.48759 -2.73635,2.23883 -2.73635,2.23883c-5.389,-0.54559 -12.4845,-0.99546 -14.83798,5.2898c-0.54728,1.46157 -0.52369,3.08246 -0.62894,4.63958c-0.02497,0.3694 -0.5199,0.86978 -0.22116,1.0885c0.39753,0.29104 0.97862,-0.11518 1.46754,-0.17599c1.0355,-0.12879 2.12005,-0.05024 3.10569,-0.39282c3.75977,-1.3068 7.30852,-4.79646 10.09429,-7.4927l3.11606,-3.45903c1.15731,1.41141 2.6176,2.62128 3.47193,4.23422c0.45992,0.86832 0.18161,1.95767 0.32279,2.93008c0.51328,3.53533 0.55313,6.78428 0.55201,10.37339c-0.00351,11.32993 -4.78669,24.07733 -11.5804,33.15829l-0.44751,0.67821c0,0 -1.38675,2.08013 -3.46688,0.69338z"/></g></g></svg>