<?xml version="1.0" encoding="UTF-8" standalone="no"?>
<!-- Created with Inkscape (http://www.inkscape.org/) -->

<svg
   width="512"
   height="128"
   viewBox="0 0 135.46666 33.866667"
   version="1.1"
   id="svg1"
   inkscape:version="1.3.2 (091e20e, 2023-11-25, custom)"
   sodipodi:docname="Logo.svg"
   xml:space="preserve"
   xmlns:inkscape="http://www.inkscape.org/namespaces/inkscape"
   xmlns:sodipodi="http://sodipodi.sourceforge.net/DTD/sodipodi-0.dtd"
   xmlns:xlink="http://www.w3.org/1999/xlink"
   xmlns="http://www.w3.org/2000/svg"
   xmlns:svg="http://www.w3.org/2000/svg"
   xmlns:rdf="http://www.w3.org/1999/02/22-rdf-syntax-ns#"
   xmlns:cc="http://creativecommons.org/ns#"><sodipodi:namedview
     id="namedview1"
     pagecolor="#a9a9a9"
     bordercolor="#000000"
     borderopacity="1"
     inkscape:showpageshadow="false"
     inkscape:pageopacity="0"
     inkscape:pagecheckerboard="false"
     inkscape:deskcolor="#4c4c4c"
     inkscape:document-units="px"
     shape-rendering="auto"
     borderlayer="true"
     showborder="true"
     showgrid="true"
     inkscape:zoom="1.4142136"
     inkscape:cx="271.529"
     inkscape:cy="64.700271"
     inkscape:window-width="1920"
     inkscape:window-height="1009"
     inkscape:window-x="-8"
     inkscape:window-y="1072"
     inkscape:window-maximized="1"
     inkscape:current-layer="layer1"><inkscape:grid
       id="grid1"
       units="px"
       originx="0"
       originy="0"
       spacingx="1.6933333"
       spacingy="1.6933333"
       empcolor="#0094e5"
       empopacity="1"
       color="#00a2fc"
       opacity="0.32156863"
       empspacing="5"
       dotted="false"
       gridanglex="30"
       gridanglez="30"
       visible="true"
       snapvisiblegridlinesonly="true" /></sodipodi:namedview><defs
     id="defs1"><rect
       x="127.89681"
       y="64.436563"
       width="383.69044"
       height="63.948407"
       id="rect1" /></defs><g
     inkscape:label="Layer 1"
     inkscape:groupmode="layer"
     id="layer1"><path
       d="m 79.991017,18.423648 c 0.603581,0 1.136881,0.04961 1.599902,0.148828 l -0.272851,2.058789 c -0.504362,-0.115755 -0.996322,-0.173633 -1.475879,-0.173633 -0.719336,0 -1.389063,0.198438 -2.00918,0.595313 -0.611849,0.396875 -1.091406,0.946712 -1.438672,1.649512 -0.347265,0.694531 -0.520898,1.46761 -0.520898,2.319238 v 7.267773 H 73.641017 V 18.671695 h 1.835547 l 0.248047,2.492871 h 0.09922 c 0.520898,-0.901237 1.136881,-1.583366 1.847949,-2.046387 0.711067,-0.463021 1.484147,-0.694531 2.319238,-0.694531 z m 12.303124,13.86582 -0.434082,-1.934766 h -0.09922 c -0.677995,0.851628 -1.355989,1.430404 -2.033984,1.736329 -0.669727,0.297656 -1.51722,0.446484 -2.54248,0.446484 -1.339453,0 -2.389519,-0.3514 -3.150196,-1.054199 -0.760677,-0.702799 -1.141015,-1.694987 -1.141015,-2.976563 0,-2.761588 2.178678,-4.208528 6.536035,-4.34082 l 2.306836,-0.08682 V 23.27296 c 0,-1.033529 -0.223242,-1.794206 -0.669727,-2.282031 -0.446484,-0.496094 -1.161686,-0.744141 -2.145605,-0.744141 -0.719336,0 -1.401465,0.107487 -2.046387,0.322461 -0.636653,0.214974 -1.2361,0.454753 -1.79834,0.719336 l -0.682128,-1.674312 c 0.686263,-0.363802 1.434538,-0.649056 2.244825,-0.855762 0.810286,-0.206705 1.612304,-0.310058 2.406054,-0.310058 1.645378,0 2.869076,0.363802 3.671094,1.091406 0.802018,0.727604 1.203027,1.885156 1.203027,3.472656 v 9.276953 z m -4.601269,-1.550293 c 1.248503,0 2.228288,-0.334863 2.939355,-1.00459 0.719336,-0.677995 1.079004,-1.637109 1.079004,-2.877343 V 25.62941 l -2.00918,0.08682 c -1.562695,0.05788 -2.703711,0.305927 -3.423046,0.744141 -0.711068,0.438216 -1.066602,1.128613 -1.066602,2.071191 0,0.711068 0.214974,1.256771 0.644922,1.637109 0.438216,0.380339 1.050065,0.570508 1.835547,0.570508 z m 14.994438,-0.02481 c 0.28939,0 0.62838,-0.02894 1.01699,-0.08682 0.38861,-0.05788 0.68213,-0.124026 0.88056,-0.198437 v 1.711523 c -0.2067,0.09095 -0.52916,0.177767 -0.96738,0.260449 -0.42995,0.09095 -0.86816,0.136426 -1.31465,0.136426 -2.662367,0 -3.993551,-1.401465 -3.993551,-4.204395 v -7.925088 h -1.922363 v -1.066602 l 1.947168,-0.892968 0.892968,-2.902149 h 1.327048 v 3.125391 h 3.93155 v 1.736328 h -3.93155 v 7.863086 c 0,0.785481 0.18604,1.389062 0.55811,1.810742 0.38034,0.421679 0.90537,0.632519 1.5751,0.632519 z m 10.0707,1.823145 c -1.95957,0 -3.48506,-0.599447 -4.57646,-1.79834 -1.09141,-1.207161 -1.63711,-2.935221 -1.63711,-5.184179 0,-2.282031 0.54984,-4.03903 1.64951,-5.270996 1.10794,-1.240235 2.68304,-1.860352 4.72529,-1.860352 0.66146,0 1.31465,0.07028 1.95957,0.21084 0.65319,0.132291 1.19063,0.305924 1.61231,0.520898 l -0.68213,1.860352 c -1.14929,-0.429948 -2.12907,-0.644922 -2.93936,-0.644922 -1.37253,0 -2.38538,0.434082 -3.03857,1.302246 -0.65319,0.859896 -0.97979,2.145606 -0.97979,3.857129 0,1.645377 0.3266,2.906282 0.97979,3.782715 0.65319,0.868164 1.62057,1.302246 2.90215,1.302246 1.19889,0 2.37711,-0.264583 3.53466,-0.79375 v 1.984375 c -0.94257,0.487825 -2.11253,0.731738 -3.50986,0.731738 z m 16.01143,-0.248047 v -8.70644 c 0,-1.107943 -0.24805,-1.930631 -0.74414,-2.468066 -0.48783,-0.545703 -1.25677,-0.818555 -2.30684,-0.818555 -1.38079,0 -2.39365,0.384473 -3.03857,1.153418 -0.63665,0.768945 -0.95498,2.038118 -0.95498,3.807519 v 7.032129 h -2.23243 V 12.991421 h 2.23243 v 5.655469 c 0,0.744141 -0.0413,1.380794 -0.12403,1.909961 h 0.14883 c 0.40515,-0.661458 0.97979,-1.178222 1.72393,-1.550293 0.74414,-0.37207 1.58336,-0.558105 2.51767,-0.558105 1.65365,0 2.89802,0.396875 3.73311,1.190625 0.83509,0.785481 1.25263,2.046386 1.25263,3.782714 v 8.867676 z"
       id="text2"
       style="font-size:25.4px;line-height:1.25;font-family:'Noto Sans';-inkscape-font-specification:'Noto Sans';fill:#ffffff;fill-opacity:0.980099;stroke-width:1.58749997;stroke:#060500;stroke-opacity:1;stroke-dasharray:none;stroke-linejoin:miter;stroke-linecap:square;paint-order:stroke fill markers"
       inkscape:label="Small"
       aria-label="muratch"
       sodipodi:nodetypes="sccsccsccccccsssccccsssccscscccssssccscscccscsssscccssccccccccccscssscscscccscscsccscscscsccccsccsscscc" /><image
       preserveAspectRatio="none"
       inkscape:svg-dpi="256"
       width="33.866665"
       height="33.866665"
       style="image-rendering:optimizeQuality"
       xlink:href="Icon.svg"
       id="image1"
       x="-7.1054274e-15"
       y="-8.8817842e-16" /><path
       d="m 51.263185,31.986395 v -8.768457 c 0,-2.14974 -0.921907,-3.224609 -2.765721,-3.224609 -1.26504,0 -2.195216,0.367936 -2.790528,1.103808 -0.595312,0.735872 -0.892968,1.860352 -0.892968,3.373438 v 7.51582 h -2.22002 v -8.768457 c 0,-1.07487 -0.227377,-1.881022 -0.682129,-2.418457 -0.446484,-0.537435 -1.149284,-0.806152 -2.108398,-0.806152 -1.256771,0 -2.178678,0.384472 -2.765723,1.153418 -0.578776,0.768945 -0.868164,2.02985 -0.868164,3.782715 v 7.056933 H 33.937112 V 18.368622 h 1.79834 l 0.334864,1.860351 h 0.124023 c 0.388607,-0.661458 0.93431,-1.178223 1.637109,-1.550293 0.711068,-0.37207 1.504818,-0.558105 2.38125,-0.558105 2.133203,0 3.522266,0.760677 4.167188,2.282031 h 0.124023 c 0.438216,-0.727604 1.033528,-1.289844 1.785938,-1.686719 0.760676,-0.396875 1.620572,-0.595312 2.579687,-0.595312 1.53789,0 2.687174,0.396875 3.447851,1.190625 0.768946,0.79375 1.153418,2.062923 1.153418,3.807519 v 8.867676 z m 8.532813,-13.617773 v 8.768457 c 0,1.099674 0.243913,1.918229 0.731738,2.455664 0.496094,0.529167 1.260906,0.79375 2.294434,0.79375 1.397331,0 2.414323,-0.388607 3.050976,-1.165821 0.636654,-0.777213 0.954981,-2.02985 0.954981,-3.75791 v -7.09414 h 2.244824 v 13.617773 h -1.835547 l -0.322461,-1.79834 h -0.111621 c -0.405143,0.65319 -0.979785,1.157552 -1.723926,1.513086 -0.74414,0.355534 -1.60817,0.533301 -2.592089,0.533301 -1.637109,0 -2.873209,-0.392741 -3.708301,-1.178223 -0.826822,-0.785481 -1.240234,-2.042252 -1.240234,-3.770312 v -8.917285 z"
       style="font-size:25.4px;line-height:1.25;font-family:'Noto Sans';-inkscape-font-specification:'Noto Sans';fill:#ffffff;fill-opacity:0.980099;stroke:#ffc200;stroke-width:3.175;stroke-linecap:round;stroke-linejoin:round;stroke-dasharray:none;stroke-opacity:1;paint-order:stroke fill markers"
       id="path1" /></g><metadata
     id="metadata1"><rdf:RDF><cc:Work
         rdf:about=""><cc:license
           rdf:resource="https://github.com/hayattgd/Emuratch/blob/stable/LICENSE" /></cc:Work></rdf:RDF></metadata></svg>
